<svg xmlns="http://www.w3.org/2000/svg" viewBox="0 0 64 64">
  <rect width="64" height="64" rx="14" fill="#0b0f14"/>
  <g transform="translate(32 33) rotate(-90)">
    <g stroke="#3a2a1a" stroke-width="2" stroke-linecap="round" fill="none">
      <path d="M6 5 L14 14 M6 -5 L14 -14 M3 7 L3 17 M3 -7 L3 -17 M0 6 L-10 15 M0 -6 L-10 -15"/>
    </g>
    <ellipse cx="-13" cy="7" rx="16" ry="6.5" transform="rotate(-18 -13 7)" fill="#d2e4ff" fill-opacity="0.45" stroke="#bcd3f5" stroke-width="1"/>
    <ellipse cx="-13" cy="-7" rx="16" ry="6.5" transform="rotate(18 -13 -7)" fill="#d2e4ff" fill-opacity="0.45" stroke="#bcd3f5" stroke-width="1"/>
    <ellipse cx="-11" cy="0" rx="12" ry="8" fill="#c9a26a"/>
    <path d="M-19 -7 v14 M-14.5 -8 v16 M-10 -8 v16" stroke="#5a3d22" stroke-width="2"/>
    <ellipse cx="3" cy="0" rx="8.5" ry="7.2" fill="#a8814e"/>
    <ellipse cx="13" cy="0" rx="4.6" ry="6" fill="#a07a48"/>
    <ellipse cx="14" cy="4.4" rx="3.7" ry="3.1" fill="#c4262b"/>
    <ellipse cx="14" cy="-4.4" rx="3.7" ry="3.1" fill="#c4262b"/>
  </g>
</svg>
